<svg width="15" height="15" viewBox="0 0 15 15" fill="none" xmlns="http://www.w3.org/2000/svg">
<path d="M5.46875 6.25C5.46875 5.12817 6.37817 4.21875 7.5 4.21875C8.62183 4.21875 9.53125 5.12817 9.53125 6.25C9.53125 7.37183 8.62183 8.28125 7.5 8.28125C6.37817 8.28125 5.46875 7.37183 5.46875 6.25Z" fill="#08C1A2"/>
<path fill-rule="evenodd" clip-rule="evenodd" d="M2.35846 5.54837C2.57324 2.94278 4.75061 0.9375 7.36504 0.9375H7.635C10.2494 0.9375 12.4268 2.94278 12.6416 5.54837C12.7572 6.95124 12.3239 8.34424 11.4328 9.43395L8.43717 13.0976C7.95281 13.6899 7.04722 13.6899 6.56287 13.0976L3.5672 9.43395C2.67617 8.34424 2.24283 6.95124 2.35846 5.54837ZM7.5 3.28125C5.8604 3.28125 4.53125 4.6104 4.53125 6.25C4.53125 7.8896 5.8604 9.21875 7.5 9.21875C9.1396 9.21875 10.4688 7.8896 10.4688 6.25C10.4688 4.6104 9.1396 3.28125 7.5 3.28125Z" fill="#08C1A2"/>
</svg>
