<svg width="24" height="16" viewBox="0 0 24 16" fill="none" xmlns="http://www.w3.org/2000/svg">
<path d="M0.21967 4.28033C0.512563 4.57322 0.987437 4.57322 1.28033 4.28033L2 3.56066L2 13.75C2 14.1642 2.33579 14.5 2.75 14.5C3.16421 14.5 3.5 14.1642 3.5 13.75L3.5 3.56066L4.21967 4.28033C4.51256 4.57322 4.98744 4.57322 5.28033 4.28033C5.57322 3.98744 5.57322 3.51256 5.28033 3.21967L3.28033 1.21967C2.98744 0.926777 2.51256 0.926777 2.21967 1.21967L0.21967 3.21967C-0.0732234 3.51256 -0.0732234 3.98744 0.21967 4.28033Z" fill="black"/>
<path d="M21.9394 13.4091L22.6591 12.6894C22.952 12.3965 23.4268 12.3965 23.7197 12.6894C24.0126 12.9823 24.0126 13.4572 23.7197 13.7501L21.7197 15.7501C21.4268 16.043 20.952 16.043 20.6591 15.7501L18.6591 13.7501C18.3662 13.4572 18.3662 12.9823 18.6591 12.6894C18.952 12.3965 19.4268 12.3965 19.7197 12.6894L20.4394 13.4091V3.21973C20.4394 2.80551 20.7752 2.46973 21.1894 2.46973C21.6036 2.46973 21.9394 2.80551 21.9394 3.21973V13.4091Z" fill="black"/>
<path d="M8.71973 6.30306H15.6428M8.71973 10.6364L14.3841 10.6364M8.71973 14.9697L13.1253 14.9697M8.71973 1.96973H17.7197" stroke="black" stroke-width="2" stroke-linecap="round" stroke-linejoin="round"/>
</svg>
