<svg width="17" height="10" viewBox="0 0 17 10" fill="none" xmlns="http://www.w3.org/2000/svg">
<path d="M8.08035 6.45008L14.1864 0.339076C14.2931 0.23162 14.4201 0.146342 14.56 0.08815C14.6999 0.0299576 14.8499 0 15.0014 0C15.1528 0 15.3028 0.0299576 15.4427 0.08815C15.5826 0.146342 15.7096 0.23162 15.8164 0.339076C16.0313 0.5569 16.1517 0.850585 16.1517 1.15658C16.1517 1.46257 16.0313 1.75625 15.8164 1.97408L8.89835 8.89708C8.68845 9.10632 8.40598 9.22661 8.10967 9.23294C7.81336 9.23927 7.526 9.13116 7.30735 8.93108L0.339353 1.97508C0.122539 1.75893 0.000470193 1.4655 1.35549e-06 1.15934C-0.000467482 0.853191 0.120702 0.55939 0.336853 0.342576C0.553005 0.125762 0.846432 0.00369322 1.15259 0.00322437C1.45874 0.00275553 1.75254 0.123925 1.96935 0.340076L8.08035 6.45008Z" fill="#3653FE"/>
</svg>
